<svg xmlns="http://www.w3.org/2000/svg" width="188" height="344" viewBox="0 0 188 344">
  <g id="Group_39" data-name="Group 39" transform="translate(-1146 -2442)">
    <circle id="Ellipse_298" data-name="Ellipse 298" cx="3" cy="3" r="3" transform="translate(1308 2442) rotate(90)" fill="#eee"/>
    <circle id="Ellipse_317" data-name="Ellipse 317" cx="3" cy="3" r="3" transform="translate(1178 2442) rotate(90)" fill="#eee"/>
    <circle id="Ellipse_298-2" data-name="Ellipse 298" cx="3" cy="3" r="3" transform="translate(1256 2442) rotate(90)" fill="#eee"/>
    <circle id="Ellipse_298-3" data-name="Ellipse 298" cx="3" cy="3" r="3" transform="translate(1282 2442) rotate(90)" fill="#eee"/>
    <circle id="Ellipse_318" data-name="Ellipse 318" cx="3" cy="3" r="3" transform="translate(1152 2442) rotate(90)" fill="#eee"/>
    <circle id="Ellipse_298-4" data-name="Ellipse 298" cx="3" cy="3" r="3" transform="translate(1334 2442) rotate(90)" fill="#eee"/>
    <circle id="Ellipse_307" data-name="Ellipse 307" cx="3" cy="3" r="3" transform="translate(1204 2442) rotate(90)" fill="#eee"/>
    <circle id="Ellipse_298-5" data-name="Ellipse 298" cx="3" cy="3" r="3" transform="translate(1230 2442) rotate(90)" fill="#eee"/>
    <circle id="Ellipse_4" data-name="Ellipse 4" cx="3" cy="3" r="3" transform="translate(1308 2676) rotate(90)" fill="#eee"/>
    <circle id="Ellipse_319" data-name="Ellipse 319" cx="3" cy="3" r="3" transform="translate(1178 2676) rotate(90)" fill="#eee"/>
    <circle id="Ellipse_298-6" data-name="Ellipse 298" cx="3" cy="3" r="3" transform="translate(1308 2780) rotate(90)" fill="#eee"/>
    <circle id="Ellipse_346" data-name="Ellipse 346" cx="3" cy="3" r="3" transform="translate(1178 2780) rotate(90)" fill="#eee"/>
    <circle id="Ellipse_294" data-name="Ellipse 294" cx="3" cy="3" r="3" transform="translate(1308 2728) rotate(90)" fill="#eee"/>
    <circle id="Ellipse_320" data-name="Ellipse 320" cx="3" cy="3" r="3" transform="translate(1178 2728) rotate(90)" fill="#eee"/>
    <circle id="Ellipse_292" data-name="Ellipse 292" cx="3" cy="3" r="3" transform="translate(1308 2702) rotate(90)" fill="#eee"/>
    <circle id="Ellipse_321" data-name="Ellipse 321" cx="3" cy="3" r="3" transform="translate(1178 2702) rotate(90)" fill="#eee"/>
    <circle id="Ellipse_293" data-name="Ellipse 293" cx="3" cy="3" r="3" transform="translate(1308 2754) rotate(90)" fill="#eee"/>
    <circle id="Ellipse_343" data-name="Ellipse 343" cx="3" cy="3" r="3" transform="translate(1178 2754) rotate(90)" fill="#eee"/>
    <circle id="Ellipse_4-2" data-name="Ellipse 4" cx="3" cy="3" r="3" transform="translate(1256 2676) rotate(90)" fill="#eee"/>
    <circle id="Ellipse_298-7" data-name="Ellipse 298" cx="3" cy="3" r="3" transform="translate(1256 2780) rotate(90)" fill="#eee"/>
    <circle id="Ellipse_294-2" data-name="Ellipse 294" cx="3" cy="3" r="3" transform="translate(1256 2728) rotate(90)" fill="#eee"/>
    <circle id="Ellipse_292-2" data-name="Ellipse 292" cx="3" cy="3" r="3" transform="translate(1256 2702) rotate(90)" fill="#eee"/>
    <circle id="Ellipse_293-2" data-name="Ellipse 293" cx="3" cy="3" r="3" transform="translate(1256 2754) rotate(90)" fill="#eee"/>
    <circle id="Ellipse_4-3" data-name="Ellipse 4" cx="3" cy="3" r="3" transform="translate(1282 2676) rotate(90)" fill="#eee"/>
    <circle id="Ellipse_322" data-name="Ellipse 322" cx="3" cy="3" r="3" transform="translate(1152 2676) rotate(90)" fill="#eee"/>
    <circle id="Ellipse_298-8" data-name="Ellipse 298" cx="3" cy="3" r="3" transform="translate(1282 2780) rotate(90)" fill="#eee"/>
    <circle id="Ellipse_347" data-name="Ellipse 347" cx="3" cy="3" r="3" transform="translate(1152 2780) rotate(90)" fill="#eee"/>
    <circle id="Ellipse_294-3" data-name="Ellipse 294" cx="3" cy="3" r="3" transform="translate(1282 2728) rotate(90)" fill="#eee"/>
    <circle id="Ellipse_323" data-name="Ellipse 323" cx="3" cy="3" r="3" transform="translate(1152 2728) rotate(90)" fill="#eee"/>
    <circle id="Ellipse_292-3" data-name="Ellipse 292" cx="3" cy="3" r="3" transform="translate(1282 2702) rotate(90)" fill="#eee"/>
    <circle id="Ellipse_324" data-name="Ellipse 324" cx="3" cy="3" r="3" transform="translate(1152 2702) rotate(90)" fill="#eee"/>
    <circle id="Ellipse_293-3" data-name="Ellipse 293" cx="3" cy="3" r="3" transform="translate(1282 2754) rotate(90)" fill="#eee"/>
    <circle id="Ellipse_344" data-name="Ellipse 344" cx="3" cy="3" r="3" transform="translate(1152 2754) rotate(90)" fill="#eee"/>
    <circle id="Ellipse_4-4" data-name="Ellipse 4" cx="3" cy="3" r="3" transform="translate(1334 2676) rotate(90)" fill="#eee"/>
    <circle id="Ellipse_316" data-name="Ellipse 316" cx="3" cy="3" r="3" transform="translate(1204 2676) rotate(90)" fill="#eee"/>
    <circle id="Ellipse_298-9" data-name="Ellipse 298" cx="3" cy="3" r="3" transform="translate(1334 2780) rotate(90)" fill="#eee"/>
    <circle id="Ellipse_348" data-name="Ellipse 348" cx="3" cy="3" r="3" transform="translate(1204 2780) rotate(90)" fill="#eee"/>
    <circle id="Ellipse_294-4" data-name="Ellipse 294" cx="3" cy="3" r="3" transform="translate(1334 2728) rotate(90)" fill="#eee"/>
    <circle id="Ellipse_325" data-name="Ellipse 325" cx="3" cy="3" r="3" transform="translate(1204 2728) rotate(90)" fill="#eee"/>
    <circle id="Ellipse_292-4" data-name="Ellipse 292" cx="3" cy="3" r="3" transform="translate(1334 2702) rotate(90)" fill="#eee"/>
    <circle id="Ellipse_326" data-name="Ellipse 326" cx="3" cy="3" r="3" transform="translate(1204 2702) rotate(90)" fill="#eee"/>
    <circle id="Ellipse_293-4" data-name="Ellipse 293" cx="3" cy="3" r="3" transform="translate(1334 2754) rotate(90)" fill="#eee"/>
    <circle id="Ellipse_345" data-name="Ellipse 345" cx="3" cy="3" r="3" transform="translate(1204 2754) rotate(90)" fill="#eee"/>
    <circle id="Ellipse_4-5" data-name="Ellipse 4" cx="3" cy="3" r="3" transform="translate(1230 2676) rotate(90)" fill="#eee"/>
    <circle id="Ellipse_298-10" data-name="Ellipse 298" cx="3" cy="3" r="3" transform="translate(1230 2780) rotate(90)" fill="#eee"/>
    <circle id="Ellipse_294-5" data-name="Ellipse 294" cx="3" cy="3" r="3" transform="translate(1230 2728) rotate(90)" fill="#eee"/>
    <circle id="Ellipse_292-5" data-name="Ellipse 292" cx="3" cy="3" r="3" transform="translate(1230 2702) rotate(90)" fill="#eee"/>
    <circle id="Ellipse_293-5" data-name="Ellipse 293" cx="3" cy="3" r="3" transform="translate(1230 2754) rotate(90)" fill="#eee"/>
    <circle id="Ellipse_306" data-name="Ellipse 306" cx="3" cy="3" r="3" transform="translate(1308 2546) rotate(90)" fill="#eee"/>
    <circle id="Ellipse_327" data-name="Ellipse 327" cx="3" cy="3" r="3" transform="translate(1178 2546) rotate(90)" fill="#eee"/>
    <circle id="Ellipse_302" data-name="Ellipse 302" cx="3" cy="3" r="3" transform="translate(1308 2650) rotate(90)" fill="#eee"/>
    <circle id="Ellipse_328" data-name="Ellipse 328" cx="3" cy="3" r="3" transform="translate(1178 2650) rotate(90)" fill="#eee"/>
    <circle id="Ellipse_304" data-name="Ellipse 304" cx="3" cy="3" r="3" transform="translate(1308 2598) rotate(90)" fill="#eee"/>
    <circle id="Ellipse_329" data-name="Ellipse 329" cx="3" cy="3" r="3" transform="translate(1178 2598) rotate(90)" fill="#eee"/>
    <circle id="Ellipse_296" data-name="Ellipse 296" cx="3" cy="3" r="3" transform="translate(1308 2494) rotate(90)" fill="#eee"/>
    <circle id="Ellipse_330" data-name="Ellipse 330" cx="3" cy="3" r="3" transform="translate(1178 2494) rotate(90)" fill="#eee"/>
    <circle id="Ellipse_305" data-name="Ellipse 305" cx="3" cy="3" r="3" transform="translate(1308 2572) rotate(90)" fill="#eee"/>
    <circle id="Ellipse_331" data-name="Ellipse 331" cx="3" cy="3" r="3" transform="translate(1178 2572) rotate(90)" fill="#eee"/>
    <circle id="Ellipse_297" data-name="Ellipse 297" cx="3" cy="3" r="3" transform="translate(1308 2468) rotate(90)" fill="#eee"/>
    <circle id="Ellipse_332" data-name="Ellipse 332" cx="3" cy="3" r="3" transform="translate(1178 2468) rotate(90)" fill="#eee"/>
    <circle id="Ellipse_303" data-name="Ellipse 303" cx="3" cy="3" r="3" transform="translate(1308 2624) rotate(90)" fill="#eee"/>
    <circle id="Ellipse_333" data-name="Ellipse 333" cx="3" cy="3" r="3" transform="translate(1178 2624) rotate(90)" fill="#eee"/>
    <circle id="Ellipse_295" data-name="Ellipse 295" cx="3" cy="3" r="3" transform="translate(1308 2520) rotate(90)" fill="#eee"/>
    <circle id="Ellipse_334" data-name="Ellipse 334" cx="3" cy="3" r="3" transform="translate(1178 2520) rotate(90)" fill="#eee"/>
    <circle id="Ellipse_306-2" data-name="Ellipse 306" cx="3" cy="3" r="3" transform="translate(1256 2546) rotate(90)" fill="#eee"/>
    <circle id="Ellipse_302-2" data-name="Ellipse 302" cx="3" cy="3" r="3" transform="translate(1256 2650) rotate(90)" fill="#eee"/>
    <circle id="Ellipse_304-2" data-name="Ellipse 304" cx="3" cy="3" r="3" transform="translate(1256 2598) rotate(90)" fill="#eee"/>
    <circle id="Ellipse_296-2" data-name="Ellipse 296" cx="3" cy="3" r="3" transform="translate(1256 2494) rotate(90)" fill="#eee"/>
    <circle id="Ellipse_305-2" data-name="Ellipse 305" cx="3" cy="3" r="3" transform="translate(1256 2572) rotate(90)" fill="#eee"/>
    <circle id="Ellipse_297-2" data-name="Ellipse 297" cx="3" cy="3" r="3" transform="translate(1256 2468) rotate(90)" fill="#eee"/>
    <circle id="Ellipse_303-2" data-name="Ellipse 303" cx="3" cy="3" r="3" transform="translate(1256 2624) rotate(90)" fill="#eee"/>
    <circle id="Ellipse_295-2" data-name="Ellipse 295" cx="3" cy="3" r="3" transform="translate(1256 2520) rotate(90)" fill="#eee"/>
    <circle id="Ellipse_306-3" data-name="Ellipse 306" cx="3" cy="3" r="3" transform="translate(1282 2546) rotate(90)" fill="#eee"/>
    <circle id="Ellipse_335" data-name="Ellipse 335" cx="3" cy="3" r="3" transform="translate(1152 2546) rotate(90)" fill="#eee"/>
    <circle id="Ellipse_302-3" data-name="Ellipse 302" cx="3" cy="3" r="3" transform="translate(1282 2650) rotate(90)" fill="#eee"/>
    <circle id="Ellipse_336" data-name="Ellipse 336" cx="3" cy="3" r="3" transform="translate(1152 2650) rotate(90)" fill="#eee"/>
    <circle id="Ellipse_304-3" data-name="Ellipse 304" cx="3" cy="3" r="3" transform="translate(1282 2598) rotate(90)" fill="#eee"/>
    <circle id="Ellipse_337" data-name="Ellipse 337" cx="3" cy="3" r="3" transform="translate(1152 2598) rotate(90)" fill="#eee"/>
    <circle id="Ellipse_296-3" data-name="Ellipse 296" cx="3" cy="3" r="3" transform="translate(1282 2494) rotate(90)" fill="#eee"/>
    <circle id="Ellipse_338" data-name="Ellipse 338" cx="3" cy="3" r="3" transform="translate(1152 2494) rotate(90)" fill="#eee"/>
    <circle id="Ellipse_305-3" data-name="Ellipse 305" cx="3" cy="3" r="3" transform="translate(1282 2572) rotate(90)" fill="#eee"/>
    <circle id="Ellipse_339" data-name="Ellipse 339" cx="3" cy="3" r="3" transform="translate(1152 2572) rotate(90)" fill="#eee"/>
    <circle id="Ellipse_297-3" data-name="Ellipse 297" cx="3" cy="3" r="3" transform="translate(1282 2468) rotate(90)" fill="#eee"/>
    <circle id="Ellipse_340" data-name="Ellipse 340" cx="3" cy="3" r="3" transform="translate(1152 2468) rotate(90)" fill="#eee"/>
    <circle id="Ellipse_303-3" data-name="Ellipse 303" cx="3" cy="3" r="3" transform="translate(1282 2624) rotate(90)" fill="#eee"/>
    <circle id="Ellipse_341" data-name="Ellipse 341" cx="3" cy="3" r="3" transform="translate(1152 2624) rotate(90)" fill="#eee"/>
    <circle id="Ellipse_295-3" data-name="Ellipse 295" cx="3" cy="3" r="3" transform="translate(1282 2520) rotate(90)" fill="#eee"/>
    <circle id="Ellipse_342" data-name="Ellipse 342" cx="3" cy="3" r="3" transform="translate(1152 2520) rotate(90)" fill="#eee"/>
    <circle id="Ellipse_306-4" data-name="Ellipse 306" cx="3" cy="3" r="3" transform="translate(1334 2546) rotate(90)" fill="#eee"/>
    <circle id="Ellipse_308" data-name="Ellipse 308" cx="3" cy="3" r="3" transform="translate(1204 2546) rotate(90)" fill="#eee"/>
    <circle id="Ellipse_302-4" data-name="Ellipse 302" cx="3" cy="3" r="3" transform="translate(1334 2650) rotate(90)" fill="#eee"/>
    <circle id="Ellipse_309" data-name="Ellipse 309" cx="3" cy="3" r="3" transform="translate(1204 2650) rotate(90)" fill="#eee"/>
    <circle id="Ellipse_304-4" data-name="Ellipse 304" cx="3" cy="3" r="3" transform="translate(1334 2598) rotate(90)" fill="#eee"/>
    <circle id="Ellipse_310" data-name="Ellipse 310" cx="3" cy="3" r="3" transform="translate(1204 2598) rotate(90)" fill="#eee"/>
    <circle id="Ellipse_296-4" data-name="Ellipse 296" cx="3" cy="3" r="3" transform="translate(1334 2494) rotate(90)" fill="#eee"/>
    <circle id="Ellipse_311" data-name="Ellipse 311" cx="3" cy="3" r="3" transform="translate(1204 2494) rotate(90)" fill="#eee"/>
    <circle id="Ellipse_305-4" data-name="Ellipse 305" cx="3" cy="3" r="3" transform="translate(1334 2572) rotate(90)" fill="#eee"/>
    <circle id="Ellipse_312" data-name="Ellipse 312" cx="3" cy="3" r="3" transform="translate(1204 2572) rotate(90)" fill="#eee"/>
    <circle id="Ellipse_297-4" data-name="Ellipse 297" cx="3" cy="3" r="3" transform="translate(1334 2468) rotate(90)" fill="#eee"/>
    <circle id="Ellipse_313" data-name="Ellipse 313" cx="3" cy="3" r="3" transform="translate(1204 2468) rotate(90)" fill="#eee"/>
    <circle id="Ellipse_303-4" data-name="Ellipse 303" cx="3" cy="3" r="3" transform="translate(1334 2624) rotate(90)" fill="#eee"/>
    <circle id="Ellipse_314" data-name="Ellipse 314" cx="3" cy="3" r="3" transform="translate(1204 2624) rotate(90)" fill="#eee"/>
    <circle id="Ellipse_295-4" data-name="Ellipse 295" cx="3" cy="3" r="3" transform="translate(1334 2520) rotate(90)" fill="#eee"/>
    <circle id="Ellipse_315" data-name="Ellipse 315" cx="3" cy="3" r="3" transform="translate(1204 2520) rotate(90)" fill="#eee"/>
    <circle id="Ellipse_306-5" data-name="Ellipse 306" cx="3" cy="3" r="3" transform="translate(1230 2546) rotate(90)" fill="#eee"/>
    <circle id="Ellipse_302-5" data-name="Ellipse 302" cx="3" cy="3" r="3" transform="translate(1230 2650) rotate(90)" fill="#eee"/>
    <circle id="Ellipse_304-5" data-name="Ellipse 304" cx="3" cy="3" r="3" transform="translate(1230 2598) rotate(90)" fill="#eee"/>
    <circle id="Ellipse_296-5" data-name="Ellipse 296" cx="3" cy="3" r="3" transform="translate(1230 2494) rotate(90)" fill="#eee"/>
    <circle id="Ellipse_305-5" data-name="Ellipse 305" cx="3" cy="3" r="3" transform="translate(1230 2572) rotate(90)" fill="#eee"/>
    <circle id="Ellipse_297-5" data-name="Ellipse 297" cx="3" cy="3" r="3" transform="translate(1230 2468) rotate(90)" fill="#eee"/>
    <circle id="Ellipse_303-5" data-name="Ellipse 303" cx="3" cy="3" r="3" transform="translate(1230 2624) rotate(90)" fill="#eee"/>
    <circle id="Ellipse_295-5" data-name="Ellipse 295" cx="3" cy="3" r="3" transform="translate(1230 2520) rotate(90)" fill="#eee"/>
  </g>
</svg>
