<svg xmlns="http://www.w3.org/2000/svg" width="318" height="318" viewBox="0 0 318 318">
  <g id="Group_40" data-name="Group 40" transform="translate(-25 -712)">
    <g id="Group_15" data-name="Group 15" transform="translate(615)">
      <g id="Group_7" data-name="Group 7">
        <circle id="Ellipse_4" data-name="Ellipse 4" cx="3" cy="3" r="3" transform="translate(-590 842)" fill="#ff9000"/>
        <circle id="Ellipse_306" data-name="Ellipse 306" cx="3" cy="3" r="3" transform="translate(-382 842)" fill="#ff9000"/>
        <circle id="Ellipse_298" data-name="Ellipse 298" cx="3" cy="3" r="3" transform="translate(-486 842)" fill="#ff9000"/>
        <circle id="Ellipse_302" data-name="Ellipse 302" cx="3" cy="3" r="3" transform="translate(-278 842)" fill="#ff9000"/>
        <circle id="Ellipse_294" data-name="Ellipse 294" cx="3" cy="3" r="3" transform="translate(-538 842)" fill="#ff9000"/>
        <circle id="Ellipse_304" data-name="Ellipse 304" cx="3" cy="3" r="3" transform="translate(-330 842)" fill="#ff9000"/>
        <circle id="Ellipse_296" data-name="Ellipse 296" cx="3" cy="3" r="3" transform="translate(-434 842)" fill="#ff9000"/>
        <circle id="Ellipse_292" data-name="Ellipse 292" cx="3" cy="3" r="3" transform="translate(-564 842)" fill="#ff9000"/>
        <circle id="Ellipse_305" data-name="Ellipse 305" cx="3" cy="3" r="3" transform="translate(-356 842)" fill="#ff9000"/>
        <circle id="Ellipse_297" data-name="Ellipse 297" cx="3" cy="3" r="3" transform="translate(-460 842)" fill="#ff9000"/>
        <circle id="Ellipse_293" data-name="Ellipse 293" cx="3" cy="3" r="3" transform="translate(-512 842)" fill="#ff9000"/>
        <circle id="Ellipse_303" data-name="Ellipse 303" cx="3" cy="3" r="3" transform="translate(-304 842)" fill="#ff9000"/>
        <circle id="Ellipse_295" data-name="Ellipse 295" cx="3" cy="3" r="3" transform="translate(-408 842)" fill="#ff9000"/>
      </g>
      <g id="Group_11" data-name="Group 11" transform="translate(0 104)">
        <circle id="Ellipse_4-2" data-name="Ellipse 4" cx="3" cy="3" r="3" transform="translate(-590 842)" fill="#ff9000"/>
        <circle id="Ellipse_306-2" data-name="Ellipse 306" cx="3" cy="3" r="3" transform="translate(-382 842)" fill="#ff9000"/>
        <circle id="Ellipse_298-2" data-name="Ellipse 298" cx="3" cy="3" r="3" transform="translate(-486 842)" fill="#ff9000"/>
        <circle id="Ellipse_302-2" data-name="Ellipse 302" cx="3" cy="3" r="3" transform="translate(-278 842)" fill="#ff9000"/>
        <circle id="Ellipse_294-2" data-name="Ellipse 294" cx="3" cy="3" r="3" transform="translate(-538 842)" fill="#ff9000"/>
        <circle id="Ellipse_304-2" data-name="Ellipse 304" cx="3" cy="3" r="3" transform="translate(-330 842)" fill="#ff9000"/>
        <circle id="Ellipse_296-2" data-name="Ellipse 296" cx="3" cy="3" r="3" transform="translate(-434 842)" fill="#ff9000"/>
        <circle id="Ellipse_292-2" data-name="Ellipse 292" cx="3" cy="3" r="3" transform="translate(-564 842)" fill="#ff9000"/>
        <circle id="Ellipse_305-2" data-name="Ellipse 305" cx="3" cy="3" r="3" transform="translate(-356 842)" fill="#ff9000"/>
        <circle id="Ellipse_297-2" data-name="Ellipse 297" cx="3" cy="3" r="3" transform="translate(-460 842)" fill="#ff9000"/>
        <circle id="Ellipse_293-2" data-name="Ellipse 293" cx="3" cy="3" r="3" transform="translate(-512 842)" fill="#ff9000"/>
        <circle id="Ellipse_303-2" data-name="Ellipse 303" cx="3" cy="3" r="3" transform="translate(-304 842)" fill="#ff9000"/>
        <circle id="Ellipse_295-2" data-name="Ellipse 295" cx="3" cy="3" r="3" transform="translate(-408 842)" fill="#ff9000"/>
      </g>
      <g id="Group_9" data-name="Group 9" transform="translate(0 52)">
        <circle id="Ellipse_4-3" data-name="Ellipse 4" cx="3" cy="3" r="3" transform="translate(-590 842)" fill="#ff9000"/>
        <circle id="Ellipse_306-3" data-name="Ellipse 306" cx="3" cy="3" r="3" transform="translate(-382 842)" fill="#ff9000"/>
        <circle id="Ellipse_298-3" data-name="Ellipse 298" cx="3" cy="3" r="3" transform="translate(-486 842)" fill="#ff9000"/>
        <circle id="Ellipse_302-3" data-name="Ellipse 302" cx="3" cy="3" r="3" transform="translate(-278 842)" fill="#ff9000"/>
        <circle id="Ellipse_294-3" data-name="Ellipse 294" cx="3" cy="3" r="3" transform="translate(-538 842)" fill="#ff9000"/>
        <circle id="Ellipse_304-3" data-name="Ellipse 304" cx="3" cy="3" r="3" transform="translate(-330 842)" fill="#ff9000"/>
        <circle id="Ellipse_296-3" data-name="Ellipse 296" cx="3" cy="3" r="3" transform="translate(-434 842)" fill="#ff9000"/>
        <circle id="Ellipse_292-3" data-name="Ellipse 292" cx="3" cy="3" r="3" transform="translate(-564 842)" fill="#ff9000"/>
        <circle id="Ellipse_305-3" data-name="Ellipse 305" cx="3" cy="3" r="3" transform="translate(-356 842)" fill="#ff9000"/>
        <circle id="Ellipse_297-3" data-name="Ellipse 297" cx="3" cy="3" r="3" transform="translate(-460 842)" fill="#ff9000"/>
        <circle id="Ellipse_293-3" data-name="Ellipse 293" cx="3" cy="3" r="3" transform="translate(-512 842)" fill="#ff9000"/>
        <circle id="Ellipse_303-3" data-name="Ellipse 303" cx="3" cy="3" r="3" transform="translate(-304 842)" fill="#ff9000"/>
        <circle id="Ellipse_295-3" data-name="Ellipse 295" cx="3" cy="3" r="3" transform="translate(-408 842)" fill="#ff9000"/>
      </g>
      <g id="Group_13" data-name="Group 13" transform="translate(0 156)">
        <circle id="Ellipse_4-4" data-name="Ellipse 4" cx="3" cy="3" r="3" transform="translate(-590 842)" fill="#ff9000"/>
        <circle id="Ellipse_306-4" data-name="Ellipse 306" cx="3" cy="3" r="3" transform="translate(-382 842)" fill="#ff9000"/>
        <circle id="Ellipse_298-4" data-name="Ellipse 298" cx="3" cy="3" r="3" transform="translate(-486 842)" fill="#ff9000"/>
        <circle id="Ellipse_302-4" data-name="Ellipse 302" cx="3" cy="3" r="3" transform="translate(-278 842)" fill="#ff9000"/>
        <circle id="Ellipse_294-4" data-name="Ellipse 294" cx="3" cy="3" r="3" transform="translate(-538 842)" fill="#ff9000"/>
        <circle id="Ellipse_304-4" data-name="Ellipse 304" cx="3" cy="3" r="3" transform="translate(-330 842)" fill="#ff9000"/>
        <circle id="Ellipse_296-4" data-name="Ellipse 296" cx="3" cy="3" r="3" transform="translate(-434 842)" fill="#ff9000"/>
        <circle id="Ellipse_292-4" data-name="Ellipse 292" cx="3" cy="3" r="3" transform="translate(-564 842)" fill="#ff9000"/>
        <circle id="Ellipse_305-4" data-name="Ellipse 305" cx="3" cy="3" r="3" transform="translate(-356 842)" fill="#ff9000"/>
        <circle id="Ellipse_297-4" data-name="Ellipse 297" cx="3" cy="3" r="3" transform="translate(-460 842)" fill="#ff9000"/>
        <circle id="Ellipse_293-4" data-name="Ellipse 293" cx="3" cy="3" r="3" transform="translate(-512 842)" fill="#ff9000"/>
        <circle id="Ellipse_303-4" data-name="Ellipse 303" cx="3" cy="3" r="3" transform="translate(-304 842)" fill="#ff9000"/>
        <circle id="Ellipse_295-4" data-name="Ellipse 295" cx="3" cy="3" r="3" transform="translate(-408 842)" fill="#ff9000"/>
      </g>
      <g id="Group_8" data-name="Group 8" transform="translate(0 26)">
        <circle id="Ellipse_4-5" data-name="Ellipse 4" cx="3" cy="3" r="3" transform="translate(-590 842)" fill="#ff9000"/>
        <circle id="Ellipse_306-5" data-name="Ellipse 306" cx="3" cy="3" r="3" transform="translate(-382 842)" fill="#ff9000"/>
        <circle id="Ellipse_298-5" data-name="Ellipse 298" cx="3" cy="3" r="3" transform="translate(-486 842)" fill="#ff9000"/>
        <circle id="Ellipse_302-5" data-name="Ellipse 302" cx="3" cy="3" r="3" transform="translate(-278 842)" fill="#ff9000"/>
        <circle id="Ellipse_294-5" data-name="Ellipse 294" cx="3" cy="3" r="3" transform="translate(-538 842)" fill="#ff9000"/>
        <circle id="Ellipse_304-5" data-name="Ellipse 304" cx="3" cy="3" r="3" transform="translate(-330 842)" fill="#ff9000"/>
        <circle id="Ellipse_296-5" data-name="Ellipse 296" cx="3" cy="3" r="3" transform="translate(-434 842)" fill="#ff9000"/>
        <circle id="Ellipse_292-5" data-name="Ellipse 292" cx="3" cy="3" r="3" transform="translate(-564 842)" fill="#ff9000"/>
        <circle id="Ellipse_305-5" data-name="Ellipse 305" cx="3" cy="3" r="3" transform="translate(-356 842)" fill="#ff9000"/>
        <circle id="Ellipse_297-5" data-name="Ellipse 297" cx="3" cy="3" r="3" transform="translate(-460 842)" fill="#ff9000"/>
        <circle id="Ellipse_293-5" data-name="Ellipse 293" cx="3" cy="3" r="3" transform="translate(-512 842)" fill="#ff9000"/>
        <circle id="Ellipse_303-5" data-name="Ellipse 303" cx="3" cy="3" r="3" transform="translate(-304 842)" fill="#ff9000"/>
        <circle id="Ellipse_295-5" data-name="Ellipse 295" cx="3" cy="3" r="3" transform="translate(-408 842)" fill="#ff9000"/>
      </g>
      <g id="Group_12" data-name="Group 12" transform="translate(0 130)">
        <circle id="Ellipse_4-6" data-name="Ellipse 4" cx="3" cy="3" r="3" transform="translate(-590 842)" fill="#ff9000"/>
        <circle id="Ellipse_306-6" data-name="Ellipse 306" cx="3" cy="3" r="3" transform="translate(-382 842)" fill="#ff9000"/>
        <circle id="Ellipse_298-6" data-name="Ellipse 298" cx="3" cy="3" r="3" transform="translate(-486 842)" fill="#ff9000"/>
        <circle id="Ellipse_302-6" data-name="Ellipse 302" cx="3" cy="3" r="3" transform="translate(-278 842)" fill="#ff9000"/>
        <circle id="Ellipse_294-6" data-name="Ellipse 294" cx="3" cy="3" r="3" transform="translate(-538 842)" fill="#ff9000"/>
        <circle id="Ellipse_304-6" data-name="Ellipse 304" cx="3" cy="3" r="3" transform="translate(-330 842)" fill="#ff9000"/>
        <circle id="Ellipse_296-6" data-name="Ellipse 296" cx="3" cy="3" r="3" transform="translate(-434 842)" fill="#ff9000"/>
        <circle id="Ellipse_292-6" data-name="Ellipse 292" cx="3" cy="3" r="3" transform="translate(-564 842)" fill="#ff9000"/>
        <circle id="Ellipse_305-6" data-name="Ellipse 305" cx="3" cy="3" r="3" transform="translate(-356 842)" fill="#ff9000"/>
        <circle id="Ellipse_297-6" data-name="Ellipse 297" cx="3" cy="3" r="3" transform="translate(-460 842)" fill="#ff9000"/>
        <circle id="Ellipse_293-6" data-name="Ellipse 293" cx="3" cy="3" r="3" transform="translate(-512 842)" fill="#ff9000"/>
        <circle id="Ellipse_303-6" data-name="Ellipse 303" cx="3" cy="3" r="3" transform="translate(-304 842)" fill="#ff9000"/>
        <circle id="Ellipse_295-6" data-name="Ellipse 295" cx="3" cy="3" r="3" transform="translate(-408 842)" fill="#ff9000"/>
      </g>
      <g id="Group_10" data-name="Group 10" transform="translate(0 78)">
        <circle id="Ellipse_4-7" data-name="Ellipse 4" cx="3" cy="3" r="3" transform="translate(-590 842)" fill="#ff9000"/>
        <circle id="Ellipse_306-7" data-name="Ellipse 306" cx="3" cy="3" r="3" transform="translate(-382 842)" fill="#ff9000"/>
        <circle id="Ellipse_298-7" data-name="Ellipse 298" cx="3" cy="3" r="3" transform="translate(-486 842)" fill="#ff9000"/>
        <circle id="Ellipse_302-7" data-name="Ellipse 302" cx="3" cy="3" r="3" transform="translate(-278 842)" fill="#ff9000"/>
        <circle id="Ellipse_294-7" data-name="Ellipse 294" cx="3" cy="3" r="3" transform="translate(-538 842)" fill="#ff9000"/>
        <circle id="Ellipse_304-7" data-name="Ellipse 304" cx="3" cy="3" r="3" transform="translate(-330 842)" fill="#ff9000"/>
        <circle id="Ellipse_296-7" data-name="Ellipse 296" cx="3" cy="3" r="3" transform="translate(-434 842)" fill="#ff9000"/>
        <circle id="Ellipse_292-7" data-name="Ellipse 292" cx="3" cy="3" r="3" transform="translate(-564 842)" fill="#ff9000"/>
        <circle id="Ellipse_305-7" data-name="Ellipse 305" cx="3" cy="3" r="3" transform="translate(-356 842)" fill="#ff9000"/>
        <circle id="Ellipse_297-7" data-name="Ellipse 297" cx="3" cy="3" r="3" transform="translate(-460 842)" fill="#ff9000"/>
        <circle id="Ellipse_293-7" data-name="Ellipse 293" cx="3" cy="3" r="3" transform="translate(-512 842)" fill="#ff9000"/>
        <circle id="Ellipse_303-7" data-name="Ellipse 303" cx="3" cy="3" r="3" transform="translate(-304 842)" fill="#ff9000"/>
        <circle id="Ellipse_295-7" data-name="Ellipse 295" cx="3" cy="3" r="3" transform="translate(-408 842)" fill="#ff9000"/>
      </g>
      <g id="Group_14" data-name="Group 14" transform="translate(0 182)">
        <circle id="Ellipse_4-8" data-name="Ellipse 4" cx="3" cy="3" r="3" transform="translate(-590 842)" fill="#ff9000"/>
        <circle id="Ellipse_306-8" data-name="Ellipse 306" cx="3" cy="3" r="3" transform="translate(-382 842)" fill="#ff9000"/>
        <circle id="Ellipse_298-8" data-name="Ellipse 298" cx="3" cy="3" r="3" transform="translate(-486 842)" fill="#ff9000"/>
        <circle id="Ellipse_302-8" data-name="Ellipse 302" cx="3" cy="3" r="3" transform="translate(-278 842)" fill="#ff9000"/>
        <circle id="Ellipse_294-8" data-name="Ellipse 294" cx="3" cy="3" r="3" transform="translate(-538 842)" fill="#ff9000"/>
        <circle id="Ellipse_304-8" data-name="Ellipse 304" cx="3" cy="3" r="3" transform="translate(-330 842)" fill="#ff9000"/>
        <circle id="Ellipse_296-8" data-name="Ellipse 296" cx="3" cy="3" r="3" transform="translate(-434 842)" fill="#ff9000"/>
        <circle id="Ellipse_292-8" data-name="Ellipse 292" cx="3" cy="3" r="3" transform="translate(-564 842)" fill="#ff9000"/>
        <circle id="Ellipse_305-8" data-name="Ellipse 305" cx="3" cy="3" r="3" transform="translate(-356 842)" fill="#ff9000"/>
        <circle id="Ellipse_297-8" data-name="Ellipse 297" cx="3" cy="3" r="3" transform="translate(-460 842)" fill="#ff9000"/>
        <circle id="Ellipse_293-8" data-name="Ellipse 293" cx="3" cy="3" r="3" transform="translate(-512 842)" fill="#ff9000"/>
        <circle id="Ellipse_303-8" data-name="Ellipse 303" cx="3" cy="3" r="3" transform="translate(-304 842)" fill="#ff9000"/>
        <circle id="Ellipse_295-8" data-name="Ellipse 295" cx="3" cy="3" r="3" transform="translate(-408 842)" fill="#ff9000"/>
      </g>
    </g>
    <g id="Group_11-2" data-name="Group 11" transform="translate(615 -104)">
      <circle id="Ellipse_4-9" data-name="Ellipse 4" cx="3" cy="3" r="3" transform="translate(-590 842)" fill="#ff9000"/>
      <circle id="Ellipse_306-9" data-name="Ellipse 306" cx="3" cy="3" r="3" transform="translate(-382 842)" fill="#ff9000"/>
      <circle id="Ellipse_298-9" data-name="Ellipse 298" cx="3" cy="3" r="3" transform="translate(-486 842)" fill="#ff9000"/>
      <circle id="Ellipse_302-9" data-name="Ellipse 302" cx="3" cy="3" r="3" transform="translate(-278 842)" fill="#ff9000"/>
      <circle id="Ellipse_294-9" data-name="Ellipse 294" cx="3" cy="3" r="3" transform="translate(-538 842)" fill="#ff9000"/>
      <circle id="Ellipse_304-9" data-name="Ellipse 304" cx="3" cy="3" r="3" transform="translate(-330 842)" fill="#ff9000"/>
      <circle id="Ellipse_296-9" data-name="Ellipse 296" cx="3" cy="3" r="3" transform="translate(-434 842)" fill="#ff9000"/>
      <circle id="Ellipse_292-9" data-name="Ellipse 292" cx="3" cy="3" r="3" transform="translate(-564 842)" fill="#ff9000"/>
      <circle id="Ellipse_305-9" data-name="Ellipse 305" cx="3" cy="3" r="3" transform="translate(-356 842)" fill="#ff9000"/>
      <circle id="Ellipse_297-9" data-name="Ellipse 297" cx="3" cy="3" r="3" transform="translate(-460 842)" fill="#ff9000"/>
      <circle id="Ellipse_293-9" data-name="Ellipse 293" cx="3" cy="3" r="3" transform="translate(-512 842)" fill="#ff9000"/>
      <circle id="Ellipse_303-9" data-name="Ellipse 303" cx="3" cy="3" r="3" transform="translate(-304 842)" fill="#ff9000"/>
      <circle id="Ellipse_295-9" data-name="Ellipse 295" cx="3" cy="3" r="3" transform="translate(-408 842)" fill="#ff9000"/>
    </g>
    <g id="Group_13-2" data-name="Group 13" transform="translate(615 -52)">
      <circle id="Ellipse_4-10" data-name="Ellipse 4" cx="3" cy="3" r="3" transform="translate(-590 842)" fill="#ff9000"/>
      <circle id="Ellipse_306-10" data-name="Ellipse 306" cx="3" cy="3" r="3" transform="translate(-382 842)" fill="#ff9000"/>
      <circle id="Ellipse_298-10" data-name="Ellipse 298" cx="3" cy="3" r="3" transform="translate(-486 842)" fill="#ff9000"/>
      <circle id="Ellipse_302-10" data-name="Ellipse 302" cx="3" cy="3" r="3" transform="translate(-278 842)" fill="#ff9000"/>
      <circle id="Ellipse_294-10" data-name="Ellipse 294" cx="3" cy="3" r="3" transform="translate(-538 842)" fill="#ff9000"/>
      <circle id="Ellipse_304-10" data-name="Ellipse 304" cx="3" cy="3" r="3" transform="translate(-330 842)" fill="#ff9000"/>
      <circle id="Ellipse_296-10" data-name="Ellipse 296" cx="3" cy="3" r="3" transform="translate(-434 842)" fill="#ff9000"/>
      <circle id="Ellipse_292-10" data-name="Ellipse 292" cx="3" cy="3" r="3" transform="translate(-564 842)" fill="#ff9000"/>
      <circle id="Ellipse_305-10" data-name="Ellipse 305" cx="3" cy="3" r="3" transform="translate(-356 842)" fill="#ff9000"/>
      <circle id="Ellipse_297-10" data-name="Ellipse 297" cx="3" cy="3" r="3" transform="translate(-460 842)" fill="#ff9000"/>
      <circle id="Ellipse_293-10" data-name="Ellipse 293" cx="3" cy="3" r="3" transform="translate(-512 842)" fill="#ff9000"/>
      <circle id="Ellipse_303-10" data-name="Ellipse 303" cx="3" cy="3" r="3" transform="translate(-304 842)" fill="#ff9000"/>
      <circle id="Ellipse_295-10" data-name="Ellipse 295" cx="3" cy="3" r="3" transform="translate(-408 842)" fill="#ff9000"/>
    </g>
    <g id="Group_12-2" data-name="Group 12" transform="translate(615 -78)">
      <circle id="Ellipse_4-11" data-name="Ellipse 4" cx="3" cy="3" r="3" transform="translate(-590 842)" fill="#ff9000"/>
      <circle id="Ellipse_306-11" data-name="Ellipse 306" cx="3" cy="3" r="3" transform="translate(-382 842)" fill="#ff9000"/>
      <circle id="Ellipse_298-11" data-name="Ellipse 298" cx="3" cy="3" r="3" transform="translate(-486 842)" fill="#ff9000"/>
      <circle id="Ellipse_302-11" data-name="Ellipse 302" cx="3" cy="3" r="3" transform="translate(-278 842)" fill="#ff9000"/>
      <circle id="Ellipse_294-11" data-name="Ellipse 294" cx="3" cy="3" r="3" transform="translate(-538 842)" fill="#ff9000"/>
      <circle id="Ellipse_304-11" data-name="Ellipse 304" cx="3" cy="3" r="3" transform="translate(-330 842)" fill="#ff9000"/>
      <circle id="Ellipse_296-11" data-name="Ellipse 296" cx="3" cy="3" r="3" transform="translate(-434 842)" fill="#ff9000"/>
      <circle id="Ellipse_292-11" data-name="Ellipse 292" cx="3" cy="3" r="3" transform="translate(-564 842)" fill="#ff9000"/>
      <circle id="Ellipse_305-11" data-name="Ellipse 305" cx="3" cy="3" r="3" transform="translate(-356 842)" fill="#ff9000"/>
      <circle id="Ellipse_297-11" data-name="Ellipse 297" cx="3" cy="3" r="3" transform="translate(-460 842)" fill="#ff9000"/>
      <circle id="Ellipse_293-11" data-name="Ellipse 293" cx="3" cy="3" r="3" transform="translate(-512 842)" fill="#ff9000"/>
      <circle id="Ellipse_303-11" data-name="Ellipse 303" cx="3" cy="3" r="3" transform="translate(-304 842)" fill="#ff9000"/>
      <circle id="Ellipse_295-11" data-name="Ellipse 295" cx="3" cy="3" r="3" transform="translate(-408 842)" fill="#ff9000"/>
    </g>
    <g id="Group_10-2" data-name="Group 10" transform="translate(615 -130)">
      <circle id="Ellipse_4-12" data-name="Ellipse 4" cx="3" cy="3" r="3" transform="translate(-590 842)" fill="#ff9000"/>
      <circle id="Ellipse_306-12" data-name="Ellipse 306" cx="3" cy="3" r="3" transform="translate(-382 842)" fill="#ff9000"/>
      <circle id="Ellipse_298-12" data-name="Ellipse 298" cx="3" cy="3" r="3" transform="translate(-486 842)" fill="#ff9000"/>
      <circle id="Ellipse_302-12" data-name="Ellipse 302" cx="3" cy="3" r="3" transform="translate(-278 842)" fill="#ff9000"/>
      <circle id="Ellipse_294-12" data-name="Ellipse 294" cx="3" cy="3" r="3" transform="translate(-538 842)" fill="#ff9000"/>
      <circle id="Ellipse_304-12" data-name="Ellipse 304" cx="3" cy="3" r="3" transform="translate(-330 842)" fill="#ff9000"/>
      <circle id="Ellipse_296-12" data-name="Ellipse 296" cx="3" cy="3" r="3" transform="translate(-434 842)" fill="#ff9000"/>
      <circle id="Ellipse_292-12" data-name="Ellipse 292" cx="3" cy="3" r="3" transform="translate(-564 842)" fill="#ff9000"/>
      <circle id="Ellipse_305-12" data-name="Ellipse 305" cx="3" cy="3" r="3" transform="translate(-356 842)" fill="#ff9000"/>
      <circle id="Ellipse_297-12" data-name="Ellipse 297" cx="3" cy="3" r="3" transform="translate(-460 842)" fill="#ff9000"/>
      <circle id="Ellipse_293-12" data-name="Ellipse 293" cx="3" cy="3" r="3" transform="translate(-512 842)" fill="#ff9000"/>
      <circle id="Ellipse_303-12" data-name="Ellipse 303" cx="3" cy="3" r="3" transform="translate(-304 842)" fill="#ff9000"/>
      <circle id="Ellipse_295-12" data-name="Ellipse 295" cx="3" cy="3" r="3" transform="translate(-408 842)" fill="#ff9000"/>
    </g>
    <g id="Group_14-2" data-name="Group 14" transform="translate(615 -26)">
      <circle id="Ellipse_4-13" data-name="Ellipse 4" cx="3" cy="3" r="3" transform="translate(-590 842)" fill="#ff9000"/>
      <circle id="Ellipse_306-13" data-name="Ellipse 306" cx="3" cy="3" r="3" transform="translate(-382 842)" fill="#ff9000"/>
      <circle id="Ellipse_298-13" data-name="Ellipse 298" cx="3" cy="3" r="3" transform="translate(-486 842)" fill="#ff9000"/>
      <circle id="Ellipse_302-13" data-name="Ellipse 302" cx="3" cy="3" r="3" transform="translate(-278 842)" fill="#ff9000"/>
      <circle id="Ellipse_294-13" data-name="Ellipse 294" cx="3" cy="3" r="3" transform="translate(-538 842)" fill="#ff9000"/>
      <circle id="Ellipse_304-13" data-name="Ellipse 304" cx="3" cy="3" r="3" transform="translate(-330 842)" fill="#ff9000"/>
      <circle id="Ellipse_296-13" data-name="Ellipse 296" cx="3" cy="3" r="3" transform="translate(-434 842)" fill="#ff9000"/>
      <circle id="Ellipse_292-13" data-name="Ellipse 292" cx="3" cy="3" r="3" transform="translate(-564 842)" fill="#ff9000"/>
      <circle id="Ellipse_305-13" data-name="Ellipse 305" cx="3" cy="3" r="3" transform="translate(-356 842)" fill="#ff9000"/>
      <circle id="Ellipse_297-13" data-name="Ellipse 297" cx="3" cy="3" r="3" transform="translate(-460 842)" fill="#ff9000"/>
      <circle id="Ellipse_293-13" data-name="Ellipse 293" cx="3" cy="3" r="3" transform="translate(-512 842)" fill="#ff9000"/>
      <circle id="Ellipse_303-13" data-name="Ellipse 303" cx="3" cy="3" r="3" transform="translate(-304 842)" fill="#ff9000"/>
      <circle id="Ellipse_295-13" data-name="Ellipse 295" cx="3" cy="3" r="3" transform="translate(-408 842)" fill="#ff9000"/>
    </g>
  </g>
</svg>
