<svg xmlns="http://www.w3.org/2000/svg" width="448" height="110" viewBox="0 0 448 110">
  <g id="Group_16" data-name="Group 16" transform="translate(-1253 -1477)">
    <circle id="Ellipse_4" data-name="Ellipse 4" cx="3" cy="3" r="3" transform="translate(1253 1503)" fill="#ff9000"/>
    <circle id="Ellipse_298" data-name="Ellipse 298" cx="3" cy="3" r="3" transform="translate(1357 1503)" fill="#ff9000"/>
    <circle id="Ellipse_294" data-name="Ellipse 294" cx="3" cy="3" r="3" transform="translate(1305 1503)" fill="#ff9000"/>
    <circle id="Ellipse_292" data-name="Ellipse 292" cx="3" cy="3" r="3" transform="translate(1279 1503)" fill="#ff9000"/>
    <circle id="Ellipse_293" data-name="Ellipse 293" cx="3" cy="3" r="3" transform="translate(1331 1503)" fill="#ff9000"/>
    <circle id="Ellipse_4-2" data-name="Ellipse 4" cx="3" cy="3" r="3" transform="translate(1253 1555)" fill="#ff9000"/>
    <circle id="Ellipse_298-2" data-name="Ellipse 298" cx="3" cy="3" r="3" transform="translate(1357 1555)" fill="#ff9000"/>
    <circle id="Ellipse_294-2" data-name="Ellipse 294" cx="3" cy="3" r="3" transform="translate(1305 1555)" fill="#ff9000"/>
    <circle id="Ellipse_292-2" data-name="Ellipse 292" cx="3" cy="3" r="3" transform="translate(1279 1555)" fill="#ff9000"/>
    <circle id="Ellipse_293-2" data-name="Ellipse 293" cx="3" cy="3" r="3" transform="translate(1331 1555)" fill="#ff9000"/>
    <circle id="Ellipse_4-3" data-name="Ellipse 4" cx="3" cy="3" r="3" transform="translate(1253 1529)" fill="#ff9000"/>
    <circle id="Ellipse_298-3" data-name="Ellipse 298" cx="3" cy="3" r="3" transform="translate(1357 1529)" fill="#ff9000"/>
    <circle id="Ellipse_294-3" data-name="Ellipse 294" cx="3" cy="3" r="3" transform="translate(1305 1529)" fill="#ff9000"/>
    <circle id="Ellipse_292-3" data-name="Ellipse 292" cx="3" cy="3" r="3" transform="translate(1279 1529)" fill="#ff9000"/>
    <circle id="Ellipse_293-3" data-name="Ellipse 293" cx="3" cy="3" r="3" transform="translate(1331 1529)" fill="#ff9000"/>
    <circle id="Ellipse_4-4" data-name="Ellipse 4" cx="3" cy="3" r="3" transform="translate(1253 1477)" fill="#ff9000"/>
    <circle id="Ellipse_298-4" data-name="Ellipse 298" cx="3" cy="3" r="3" transform="translate(1357 1477)" fill="#ff9000"/>
    <circle id="Ellipse_294-4" data-name="Ellipse 294" cx="3" cy="3" r="3" transform="translate(1305 1477)" fill="#ff9000"/>
    <circle id="Ellipse_292-4" data-name="Ellipse 292" cx="3" cy="3" r="3" transform="translate(1279 1477)" fill="#ff9000"/>
    <circle id="Ellipse_293-4" data-name="Ellipse 293" cx="3" cy="3" r="3" transform="translate(1331 1477)" fill="#ff9000"/>
    <circle id="Ellipse_4-5" data-name="Ellipse 4" cx="3" cy="3" r="3" transform="translate(1253 1581)" fill="#ff9000"/>
    <circle id="Ellipse_298-5" data-name="Ellipse 298" cx="3" cy="3" r="3" transform="translate(1357 1581)" fill="#ff9000"/>
    <circle id="Ellipse_294-5" data-name="Ellipse 294" cx="3" cy="3" r="3" transform="translate(1305 1581)" fill="#ff9000"/>
    <circle id="Ellipse_292-5" data-name="Ellipse 292" cx="3" cy="3" r="3" transform="translate(1279 1581)" fill="#ff9000"/>
    <circle id="Ellipse_293-5" data-name="Ellipse 293" cx="3" cy="3" r="3" transform="translate(1331 1581)" fill="#ff9000"/>
    <circle id="Ellipse_4-6" data-name="Ellipse 4" cx="3" cy="3" r="3" transform="translate(1591 1503)" fill="#ff9000"/>
    <circle id="Ellipse_298-6" data-name="Ellipse 298" cx="3" cy="3" r="3" transform="translate(1695 1503)" fill="#ff9000"/>
    <circle id="Ellipse_294-6" data-name="Ellipse 294" cx="3" cy="3" r="3" transform="translate(1643 1503)" fill="#ff9000"/>
    <circle id="Ellipse_292-6" data-name="Ellipse 292" cx="3" cy="3" r="3" transform="translate(1617 1503)" fill="#ff9000"/>
    <circle id="Ellipse_293-6" data-name="Ellipse 293" cx="3" cy="3" r="3" transform="translate(1669 1503)" fill="#ff9000"/>
    <circle id="Ellipse_4-7" data-name="Ellipse 4" cx="3" cy="3" r="3" transform="translate(1591 1555)" fill="#ff9000"/>
    <circle id="Ellipse_298-7" data-name="Ellipse 298" cx="3" cy="3" r="3" transform="translate(1695 1555)" fill="#ff9000"/>
    <circle id="Ellipse_294-7" data-name="Ellipse 294" cx="3" cy="3" r="3" transform="translate(1643 1555)" fill="#ff9000"/>
    <circle id="Ellipse_292-7" data-name="Ellipse 292" cx="3" cy="3" r="3" transform="translate(1617 1555)" fill="#ff9000"/>
    <circle id="Ellipse_293-7" data-name="Ellipse 293" cx="3" cy="3" r="3" transform="translate(1669 1555)" fill="#ff9000"/>
    <circle id="Ellipse_4-8" data-name="Ellipse 4" cx="3" cy="3" r="3" transform="translate(1591 1529)" fill="#ff9000"/>
    <circle id="Ellipse_298-8" data-name="Ellipse 298" cx="3" cy="3" r="3" transform="translate(1695 1529)" fill="#ff9000"/>
    <circle id="Ellipse_294-8" data-name="Ellipse 294" cx="3" cy="3" r="3" transform="translate(1643 1529)" fill="#ff9000"/>
    <circle id="Ellipse_292-8" data-name="Ellipse 292" cx="3" cy="3" r="3" transform="translate(1617 1529)" fill="#ff9000"/>
    <circle id="Ellipse_293-8" data-name="Ellipse 293" cx="3" cy="3" r="3" transform="translate(1669 1529)" fill="#ff9000"/>
    <circle id="Ellipse_4-9" data-name="Ellipse 4" cx="3" cy="3" r="3" transform="translate(1591 1477)" fill="#ff9000"/>
    <circle id="Ellipse_298-9" data-name="Ellipse 298" cx="3" cy="3" r="3" transform="translate(1695 1477)" fill="#ff9000"/>
    <circle id="Ellipse_294-9" data-name="Ellipse 294" cx="3" cy="3" r="3" transform="translate(1643 1477)" fill="#ff9000"/>
    <circle id="Ellipse_292-9" data-name="Ellipse 292" cx="3" cy="3" r="3" transform="translate(1617 1477)" fill="#ff9000"/>
    <circle id="Ellipse_293-9" data-name="Ellipse 293" cx="3" cy="3" r="3" transform="translate(1669 1477)" fill="#ff9000"/>
    <circle id="Ellipse_4-10" data-name="Ellipse 4" cx="3" cy="3" r="3" transform="translate(1591 1581)" fill="#ff9000"/>
    <circle id="Ellipse_298-10" data-name="Ellipse 298" cx="3" cy="3" r="3" transform="translate(1695 1581)" fill="#ff9000"/>
    <circle id="Ellipse_294-10" data-name="Ellipse 294" cx="3" cy="3" r="3" transform="translate(1643 1581)" fill="#ff9000"/>
    <circle id="Ellipse_292-10" data-name="Ellipse 292" cx="3" cy="3" r="3" transform="translate(1617 1581)" fill="#ff9000"/>
    <circle id="Ellipse_293-10" data-name="Ellipse 293" cx="3" cy="3" r="3" transform="translate(1669 1581)" fill="#ff9000"/>
    <circle id="Ellipse_306" data-name="Ellipse 306" cx="3" cy="3" r="3" transform="translate(1461 1503)" fill="#ff9000"/>
    <circle id="Ellipse_302" data-name="Ellipse 302" cx="3" cy="3" r="3" transform="translate(1565 1503)" fill="#ff9000"/>
    <circle id="Ellipse_304" data-name="Ellipse 304" cx="3" cy="3" r="3" transform="translate(1513 1503)" fill="#ff9000"/>
    <circle id="Ellipse_296" data-name="Ellipse 296" cx="3" cy="3" r="3" transform="translate(1409 1503)" fill="#ff9000"/>
    <circle id="Ellipse_305" data-name="Ellipse 305" cx="3" cy="3" r="3" transform="translate(1487 1503)" fill="#ff9000"/>
    <circle id="Ellipse_297" data-name="Ellipse 297" cx="3" cy="3" r="3" transform="translate(1383 1503)" fill="#ff9000"/>
    <circle id="Ellipse_303" data-name="Ellipse 303" cx="3" cy="3" r="3" transform="translate(1539 1503)" fill="#ff9000"/>
    <circle id="Ellipse_295" data-name="Ellipse 295" cx="3" cy="3" r="3" transform="translate(1435 1503)" fill="#ff9000"/>
    <circle id="Ellipse_306-2" data-name="Ellipse 306" cx="3" cy="3" r="3" transform="translate(1461 1555)" fill="#ff9000"/>
    <circle id="Ellipse_302-2" data-name="Ellipse 302" cx="3" cy="3" r="3" transform="translate(1565 1555)" fill="#ff9000"/>
    <circle id="Ellipse_304-2" data-name="Ellipse 304" cx="3" cy="3" r="3" transform="translate(1513 1555)" fill="#ff9000"/>
    <circle id="Ellipse_296-2" data-name="Ellipse 296" cx="3" cy="3" r="3" transform="translate(1409 1555)" fill="#ff9000"/>
    <circle id="Ellipse_305-2" data-name="Ellipse 305" cx="3" cy="3" r="3" transform="translate(1487 1555)" fill="#ff9000"/>
    <circle id="Ellipse_297-2" data-name="Ellipse 297" cx="3" cy="3" r="3" transform="translate(1383 1555)" fill="#ff9000"/>
    <circle id="Ellipse_303-2" data-name="Ellipse 303" cx="3" cy="3" r="3" transform="translate(1539 1555)" fill="#ff9000"/>
    <circle id="Ellipse_295-2" data-name="Ellipse 295" cx="3" cy="3" r="3" transform="translate(1435 1555)" fill="#ff9000"/>
    <circle id="Ellipse_306-3" data-name="Ellipse 306" cx="3" cy="3" r="3" transform="translate(1461 1529)" fill="#ff9000"/>
    <circle id="Ellipse_302-3" data-name="Ellipse 302" cx="3" cy="3" r="3" transform="translate(1565 1529)" fill="#ff9000"/>
    <circle id="Ellipse_304-3" data-name="Ellipse 304" cx="3" cy="3" r="3" transform="translate(1513 1529)" fill="#ff9000"/>
    <circle id="Ellipse_296-3" data-name="Ellipse 296" cx="3" cy="3" r="3" transform="translate(1409 1529)" fill="#ff9000"/>
    <circle id="Ellipse_305-3" data-name="Ellipse 305" cx="3" cy="3" r="3" transform="translate(1487 1529)" fill="#ff9000"/>
    <circle id="Ellipse_297-3" data-name="Ellipse 297" cx="3" cy="3" r="3" transform="translate(1383 1529)" fill="#ff9000"/>
    <circle id="Ellipse_303-3" data-name="Ellipse 303" cx="3" cy="3" r="3" transform="translate(1539 1529)" fill="#ff9000"/>
    <circle id="Ellipse_295-3" data-name="Ellipse 295" cx="3" cy="3" r="3" transform="translate(1435 1529)" fill="#ff9000"/>
    <circle id="Ellipse_306-4" data-name="Ellipse 306" cx="3" cy="3" r="3" transform="translate(1461 1477)" fill="#ff9000"/>
    <circle id="Ellipse_302-4" data-name="Ellipse 302" cx="3" cy="3" r="3" transform="translate(1565 1477)" fill="#ff9000"/>
    <circle id="Ellipse_304-4" data-name="Ellipse 304" cx="3" cy="3" r="3" transform="translate(1513 1477)" fill="#ff9000"/>
    <circle id="Ellipse_296-4" data-name="Ellipse 296" cx="3" cy="3" r="3" transform="translate(1409 1477)" fill="#ff9000"/>
    <circle id="Ellipse_305-4" data-name="Ellipse 305" cx="3" cy="3" r="3" transform="translate(1487 1477)" fill="#ff9000"/>
    <circle id="Ellipse_297-4" data-name="Ellipse 297" cx="3" cy="3" r="3" transform="translate(1383 1477)" fill="#ff9000"/>
    <circle id="Ellipse_303-4" data-name="Ellipse 303" cx="3" cy="3" r="3" transform="translate(1539 1477)" fill="#ff9000"/>
    <circle id="Ellipse_295-4" data-name="Ellipse 295" cx="3" cy="3" r="3" transform="translate(1435 1477)" fill="#ff9000"/>
    <circle id="Ellipse_306-5" data-name="Ellipse 306" cx="3" cy="3" r="3" transform="translate(1461 1581)" fill="#ff9000"/>
    <circle id="Ellipse_302-5" data-name="Ellipse 302" cx="3" cy="3" r="3" transform="translate(1565 1581)" fill="#ff9000"/>
    <circle id="Ellipse_304-5" data-name="Ellipse 304" cx="3" cy="3" r="3" transform="translate(1513 1581)" fill="#ff9000"/>
    <circle id="Ellipse_296-5" data-name="Ellipse 296" cx="3" cy="3" r="3" transform="translate(1409 1581)" fill="#ff9000"/>
    <circle id="Ellipse_305-5" data-name="Ellipse 305" cx="3" cy="3" r="3" transform="translate(1487 1581)" fill="#ff9000"/>
    <circle id="Ellipse_297-5" data-name="Ellipse 297" cx="3" cy="3" r="3" transform="translate(1383 1581)" fill="#ff9000"/>
    <circle id="Ellipse_303-5" data-name="Ellipse 303" cx="3" cy="3" r="3" transform="translate(1539 1581)" fill="#ff9000"/>
    <circle id="Ellipse_295-5" data-name="Ellipse 295" cx="3" cy="3" r="3" transform="translate(1435 1581)" fill="#ff9000"/>
  </g>
</svg>
