<svg id="black-back-closed-envelope-shape" xmlns="http://www.w3.org/2000/svg" width="31.017" height="24.371" viewBox="0 0 31.017 24.371">
  <g id="Group_5" data-name="Group 5" transform="translate(0 0)">
    <path id="Path_8" data-name="Path 8" d="M44.239,333a2.651,2.651,0,0,0,1.815-.685l-8.788-8.788-.608.437q-.986.727-1.6,1.134a9.867,9.867,0,0,1-1.636.831,4.984,4.984,0,0,1-1.9.424h-.034a4.983,4.983,0,0,1-1.9-.424,9.834,9.834,0,0,1-1.636-.831q-.615-.406-1.6-1.134c-.183-.134-.387-.282-.607-.44l-8.789,8.79a2.652,2.652,0,0,0,1.815.685Z" transform="translate(-15.992 -308.629)"/>
    <path id="Path_9" data-name="Path 9" d="M1.748,200.061A9.175,9.175,0,0,1,0,198.555v13.37l7.745-7.745Q5.421,202.557,1.748,200.061Z" transform="translate(0 -190.697)"/>
    <path id="Path_10" data-name="Path 10" d="M419.32,200.061q-3.536,2.394-6.011,4.122l7.742,7.743v-13.37A9.552,9.552,0,0,1,419.32,200.061Z" transform="translate(-390.034 -190.697)"/>
    <path id="Path_11" data-name="Path 11" d="M28.253,59.013H2.775a2.472,2.472,0,0,0-2.051.9,3.492,3.492,0,0,0-.718,2.25,4.045,4.045,0,0,0,.952,2.363,8.587,8.587,0,0,0,2.025,2q.588.416,3.548,2.467c1.065.738,1.992,1.382,2.788,1.937.679.473,1.264.882,1.747,1.222l.258.184.477.344q.562.407.935.658t.9.562a5.251,5.251,0,0,0,1,.467,2.754,2.754,0,0,0,.865.156h.034a2.755,2.755,0,0,0,.865-.156,5.239,5.239,0,0,0,1-.467q.528-.312.9-.562t.935-.658l.477-.344.259-.184,1.752-1.217,6.349-4.408A8.232,8.232,0,0,0,30.175,64.4a4.579,4.579,0,0,0,.848-2.613,2.792,2.792,0,0,0-2.77-2.769Z" transform="translate(-0.006 -59.013)"/>
  </g>
</svg>
