<svg xmlns="http://www.w3.org/2000/svg" width="31.232" height="31.232" viewBox="0 0 31.232 31.232">
  <path id="Subtraction_1" data-name="Subtraction 1" d="M15.616,31.232a15.733,15.733,0,0,1-3.147-.317,15.53,15.53,0,0,1-5.584-2.35,15.66,15.66,0,0,1-5.658-6.871,15.538,15.538,0,0,1-.91-2.931,15.769,15.769,0,0,1,0-6.294,15.531,15.531,0,0,1,2.35-5.584A15.662,15.662,0,0,1,9.537,1.227a15.537,15.537,0,0,1,2.931-.91,15.768,15.768,0,0,1,6.295,0,15.53,15.53,0,0,1,5.584,2.35A15.662,15.662,0,0,1,30,9.538a15.538,15.538,0,0,1,.91,2.931,15.769,15.769,0,0,1,0,6.294,15.53,15.53,0,0,1-2.35,5.584,15.661,15.661,0,0,1-6.871,5.658,15.538,15.538,0,0,1-2.931.91A15.733,15.733,0,0,1,15.616,31.232ZM11.7,12.678V15.59h1.952v7.8h2.942v-7.8H19l.466-2.911H16.6v-.9a1.1,1.1,0,0,1,.258-.73.871.871,0,0,1,.664-.3H19.53V7.778H17.164v.011a3.572,3.572,0,0,0-2.808,1.106,3.663,3.663,0,0,0-.7,2.3h-.006v1.485Z"/>
</svg>
