<svg id="instagram" xmlns="http://www.w3.org/2000/svg" width="31.232" height="31.232" viewBox="0 0 31.232 31.232">
  <path id="Path_14" data-name="Path 14" d="M212.978,209.989A2.989,2.989,0,1,1,209.989,207,2.989,2.989,0,0,1,212.978,209.989Zm0,0" transform="translate(-194.373 -194.373)"/>
  <path id="Path_15" data-name="Path 15" d="M149.826,137.551a2.969,2.969,0,0,0-1.7-1.7,4.961,4.961,0,0,0-1.665-.309c-.946-.043-1.229-.052-3.624-.052s-2.678.009-3.624.052a4.964,4.964,0,0,0-1.665.309,2.971,2.971,0,0,0-1.7,1.7,4.963,4.963,0,0,0-.309,1.665c-.043.945-.052,1.229-.052,3.624s.009,2.678.052,3.624a4.961,4.961,0,0,0,.309,1.665,2.97,2.97,0,0,0,1.7,1.7,4.955,4.955,0,0,0,1.665.309c.946.043,1.229.052,3.623.052s2.678-.009,3.624-.052a4.955,4.955,0,0,0,1.665-.309,2.969,2.969,0,0,0,1.7-1.7,4.965,4.965,0,0,0,.309-1.665c.043-.946.052-1.229.052-3.624s-.009-2.678-.052-3.624A4.955,4.955,0,0,0,149.826,137.551Zm-6.99,9.893a4.6,4.6,0,1,1,4.6-4.6A4.6,4.6,0,0,1,142.836,147.445Zm4.787-8.315a1.076,1.076,0,1,1,1.076-1.076A1.076,1.076,0,0,1,147.623,139.129Zm0,0" transform="translate(-127.22 -127.224)"/>
  <path id="Path_16" data-name="Path 16" d="M15.616,0A15.616,15.616,0,1,0,31.232,15.616,15.618,15.618,0,0,0,15.616,0Zm8.913,19.313a6.579,6.579,0,0,1-.417,2.177,4.585,4.585,0,0,1-2.623,2.623,6.583,6.583,0,0,1-2.176.417c-.956.044-1.262.054-3.7.054s-2.741-.01-3.7-.054a6.583,6.583,0,0,1-2.176-.417A4.585,4.585,0,0,1,7.12,21.49,6.577,6.577,0,0,1,6.7,19.313c-.044-.956-.054-1.262-.054-3.7s.01-2.741.054-3.7A6.58,6.58,0,0,1,7.12,9.742,4.588,4.588,0,0,1,9.742,7.12,6.585,6.585,0,0,1,11.919,6.7c.956-.044,1.262-.054,3.7-.054s2.741.01,3.7.054a6.586,6.586,0,0,1,2.177.416,4.586,4.586,0,0,1,2.623,2.623,6.578,6.578,0,0,1,.417,2.177c.044.956.054,1.262.054,3.7S24.573,18.357,24.529,19.313Zm0,0"/>
</svg>
