<svg xmlns="http://www.w3.org/2000/svg" width="197.87" height="85.689" viewBox="0 0 197.87 85.689">
  <g id="Group_28" data-name="Group 28" transform="translate(-265.076 -334.719)">
    <g id="Group_25" data-name="Group 25" transform="translate(334.825 334.719)">
      <path id="Path_31" data-name="Path 31" d="M330.937,349.139l14.449-14.42v42.756H330.937Z" transform="translate(-309.696 -334.719)" fill="#f15c18"/>
      <path id="Path_32" data-name="Path 32" d="M361.011,371.571V350.193l-14.449,14.42v6.958Z" transform="translate(-303.735 -328.815)" fill="#f15c18"/>
      <path id="Path_33" data-name="Path 33" d="M330.011,371.465V350.471l-14.449,14.036v6.958Z" transform="translate(-315.562 -328.709)" fill="#f15c18"/>
    </g>
    <g id="Group_26" data-name="Group 26" transform="translate(265.076 390.311)">
      <path id="Path_34" data-name="Path 34" d="M277.04,388.4,277,381.378l-3.408,5.717H271.93l-3.389-5.529V388.4h-3.465V375.149h3.086l4.657,7.65,4.542-7.65h3.086l.037,13.252Z" transform="translate(-265.076 -374.885)" fill="#f15c18"/>
      <path id="Path_35" data-name="Path 35" d="M277.917,382.495v-7.346h3.748v7.232c0,2.271.946,3.18,2.519,3.18,1.553,0,2.5-.909,2.5-3.18v-7.232h3.691v7.346c0,3.957-2.31,6.171-6.228,6.171S277.917,386.451,277.917,382.495Z" transform="translate(-260.177 -374.885)" fill="#f15c18"/>
      <path id="Path_36" data-name="Path 36" d="M301.228,375.149V388.4H297.48v-5.168h-5.112V388.4H288.62V375.149h3.748v4.979h5.112v-4.979Z" transform="translate(-256.093 -374.885)" fill="#f15c18"/>
      <path id="Path_37" data-name="Path 37" d="M308.833,385.827h-5.6l-1.04,2.574h-3.824l5.849-13.252h3.691l5.869,13.252h-3.9Zm-1.1-2.764-1.7-4.24-1.7,4.24Z" transform="translate(-252.375 -374.885)" fill="#f15c18"/>
      <path id="Path_38" data-name="Path 38" d="M322.1,388.4l-.037-7.022-3.408,5.717h-1.666l-3.388-5.529V388.4h-3.465V375.149h3.085l4.657,7.65,4.543-7.65h3.086l.037,13.252Z" transform="translate(-247.883 -374.885)" fill="#f15c18"/>
      <path id="Path_39" data-name="Path 39" d="M335.024,388.4l-.039-7.022-3.407,5.717h-1.665l-3.39-5.529V388.4H323.06V375.149h3.086l4.656,7.65,4.544-7.65h3.086l.037,13.252Z" transform="translate(-242.953 -374.885)" fill="#f15c18"/>
      <path id="Path_40" data-name="Path 40" d="M345.3,385.827h-5.6l-1.04,2.574h-3.826l5.849-13.252h3.691l5.869,13.252h-3.9Zm-1.1-2.764-1.7-4.24-1.7,4.24Z" transform="translate(-238.461 -374.885)" fill="#f15c18"/>
      <path id="Path_41" data-name="Path 41" d="M346.6,375.149h6.267c4.392,0,7.4,2.557,7.4,6.626s-3.009,6.626-7.4,6.626H346.6Zm6.115,10.261a3.637,3.637,0,1,0,0-7.27h-2.367v7.27Z" transform="translate(-233.97 -374.885)" fill="#f15c18"/>
      <path id="Path_42" data-name="Path 42" d="M369.18,383.65V388.4h-3.75v-4.808l-5.054-8.444h3.957l3.143,5.264,3.142-5.264h3.635Z" transform="translate(-228.715 -374.885)" fill="#f15c18"/>
      <path id="Path_43" data-name="Path 43" d="M370.737,382.495v-7.346h3.748v7.232c0,2.271.948,3.18,2.519,3.18,1.551,0,2.5-.909,2.5-3.18v-7.232h3.691v7.346c0,3.957-2.31,6.171-6.228,6.171S370.737,386.451,370.737,382.495Z" transform="translate(-224.762 -374.885)" fill="#f15c18"/>
      <path id="Path_44" data-name="Path 44" d="M380.769,387.281l1.23-2.764a8.36,8.36,0,0,0,4.374,1.307c1.551,0,2.158-.435,2.158-1.079,0-2.1-7.534-.568-7.534-5.49,0-2.367,1.93-4.3,5.867-4.3a9.936,9.936,0,0,1,4.808,1.154l-1.155,2.784a7.816,7.816,0,0,0-3.672-1.022c-1.571,0-2.139.531-2.139,1.192,0,2.025,7.516.511,7.516,5.395,0,2.31-1.931,4.279-5.867,4.279A10.438,10.438,0,0,1,380.769,387.281Z" transform="translate(-220.935 -374.958)" fill="#f15c18"/>
      <path id="Path_45" data-name="Path 45" d="M390.074,382.495v-7.346h3.748v7.232c0,2.271.948,3.18,2.519,3.18,1.551,0,2.5-.909,2.5-3.18v-7.232h3.691v7.346c0,3.957-2.31,6.171-6.228,6.171S390.074,386.451,390.074,382.495Z" transform="translate(-217.384 -374.885)" fill="#f15c18"/>
      <path id="Path_46" data-name="Path 46" d="M404.525,378.046v2.915h5.851v2.9h-5.851V388.4h-3.748V375.149H411.17v2.9Z" transform="translate(-213.301 -374.885)" fill="#f15c18"/>
    </g>
    <g id="Group_27" data-name="Group 27" transform="translate(293.985 414.944)">
      <path id="Path_47" data-name="Path 47" d="M294.107,392.833l-1.786,5.341h-.8l-1.458-4.266-1.458,4.266h-.816L286,392.833h.786l1.442,4.342,1.5-4.342h.7l1.473,4.364,1.473-4.364Z" transform="translate(-286.001 -392.771)"/>
      <path id="Path_48" data-name="Path 48" d="M296.323,396.838h-2.839l-.587,1.336h-.786l2.419-5.341h.756l2.427,5.341h-.8Zm-.267-.609-1.152-2.618-1.152,2.618Z" transform="translate(-283.67 -392.771)"/>
      <path id="Path_49" data-name="Path 49" d="M296.468,397.465l.443-.52a1.333,1.333,0,0,0,1.114.634c.6,0,.916-.368.916-1.085v-3H297.01v-.663H299.7v3.624c0,1.191-.58,1.778-1.672,1.778A1.863,1.863,0,0,1,296.468,397.465Z" transform="translate(-282.007 -392.771)"/>
      <path id="Path_50" data-name="Path 50" d="M303.749,396.838H300.91l-.587,1.336h-.786l2.419-5.341h.756l2.426,5.341h-.8Zm-.267-.609-1.152-2.618-1.152,2.618Z" transform="translate(-280.836 -392.771)"/>
      <path id="Path_51" data-name="Path 51" d="M309.035,392.833v5.341h-.763v-2.38H305.2v2.38h-.763v-5.341h.763v2.3h3.068v-2.3Z" transform="translate(-278.965 -392.771)"/>
      <path id="Path_52" data-name="Path 52" d="M315.553,396.732c0,.916-.695,1.442-2.045,1.442h-2.549v-5.341h2.4c1.23,0,1.916.518,1.916,1.38a1.268,1.268,0,0,1-.717,1.191A1.291,1.291,0,0,1,315.553,396.732Zm-3.83-3.281v1.71h1.564c.778,0,1.22-.29,1.22-.857s-.442-.854-1.22-.854Zm3.06,3.22c0-.618-.457-.892-1.306-.892h-1.755v1.778h1.755C314.326,397.556,314.783,397.29,314.783,396.671Z" transform="translate(-276.479 -392.771)"/>
      <path id="Path_53" data-name="Path 53" d="M319.042,396.838H316.2l-.587,1.336h-.786l2.419-5.341H318l2.427,5.341h-.8Zm-.267-.609-1.152-2.618-1.152,2.618Z" transform="translate(-275.002 -392.771)"/>
      <path id="Path_54" data-name="Path 54" d="M323.305,398.174l-1.152-1.64c-.108.008-.221.014-.336.014H320.5v1.626h-.763v-5.341h2.083c1.388,0,2.227.7,2.227,1.862a1.683,1.683,0,0,1-1.174,1.685l1.267,1.793Zm-.022-3.479c0-.764-.511-1.2-1.488-1.2h-1.3v2.4h1.3C322.772,395.9,323.283,395.457,323.283,394.7Z" transform="translate(-273.131 -392.771)"/>
      <path id="Path_55" data-name="Path 55" d="M323.991,395.87v-3.037h.764v3.006c0,1.183.542,1.717,1.5,1.717s1.511-.535,1.511-1.717v-3.006h.741v3.037a2.262,2.262,0,1,1-4.519,0Z" transform="translate(-271.506 -392.771)"/>
      <path id="Path_56" data-name="Path 56" d="M335.022,396.732c0,.916-.695,1.442-2.046,1.442h-2.548v-5.341h2.4c1.228,0,1.915.518,1.915,1.38a1.265,1.265,0,0,1-.717,1.191A1.291,1.291,0,0,1,335.022,396.732Zm-3.832-3.281v1.71h1.565c.779,0,1.221-.29,1.221-.857s-.442-.854-1.221-.854Zm3.06,3.22c0-.618-.457-.892-1.3-.892h-1.756v1.778h1.756C333.792,397.556,334.249,397.29,334.249,396.671Z" transform="translate(-269.05 -392.771)"/>
      <path id="Path_57" data-name="Path 57" d="M334.851,395.87v-3.037h.763v3.006c0,1.183.542,1.717,1.5,1.717s1.511-.535,1.511-1.717v-3.006h.741v3.037a2.261,2.261,0,1,1-4.518,0Z" transform="translate(-267.363 -392.771)"/>
      <path id="Path_58" data-name="Path 58" d="M339.528,392.833h.763v4.678h2.893v.663h-3.656Z" transform="translate(-265.578 -392.771)"/>
      <path id="Path_59" data-name="Path 59" d="M342.984,395.87v-3.037h.763v3.006c0,1.183.543,1.717,1.5,1.717s1.511-.535,1.511-1.717v-3.006h.739v3.037a2.261,2.261,0,1,1-4.518,0Z" transform="translate(-264.26 -392.771)"/>
      <path id="Path_60" data-name="Path 60" d="M349.4,395.8l-.977.992v1.382h-.764v-5.341h.764v2.983l2.9-2.983h.87l-2.281,2.4,2.426,2.939h-.892Z" transform="translate(-262.475 -392.771)"/>
      <path id="Path_61" data-name="Path 61" d="M351.819,395.87v-3.037h.764v3.006c0,1.183.542,1.717,1.5,1.717s1.511-.535,1.511-1.717v-3.006h.74v3.037a2.262,2.262,0,1,1-4.519,0Z" transform="translate(-260.889 -392.771)"/>
      <path id="Path_62" data-name="Path 62" d="M361.45,398.174l-.008-3.892-1.93,3.242h-.351l-1.931-3.22v3.87H356.5v-5.341h.626l2.228,3.755,2.2-3.755h.624l.008,5.341Z" transform="translate(-259.104 -392.771)"/>
      <path id="Path_63" data-name="Path 63" d="M366.642,396.732c0,.916-.695,1.442-2.045,1.442h-2.549v-5.341h2.4c1.23,0,1.916.518,1.916,1.38a1.267,1.267,0,0,1-.718,1.191A1.29,1.29,0,0,1,366.642,396.732Zm-3.83-3.281v1.71h1.563c.779,0,1.221-.29,1.221-.857s-.442-.854-1.221-.854Zm3.059,3.22c0-.618-.457-.892-1.3-.892h-1.755v1.778h1.755C365.413,397.556,365.871,397.29,365.871,396.671Z" transform="translate(-256.986 -392.771)"/>
      <path id="Path_64" data-name="Path 64" d="M370.131,396.838h-2.839l-.587,1.336h-.786l2.419-5.341h.756l2.427,5.341h-.8Zm-.268-.609-1.152-2.618-1.152,2.618Z" transform="translate(-255.509 -392.771)"/>
      <path id="Path_65" data-name="Path 65" d="M376.093,397.528v.663h-3.838v-.52l2.175-2.1c.564-.55.671-.886.671-1.221,0-.55-.39-.885-1.137-.885a1.678,1.678,0,0,0-1.366.58l-.519-.45a2.468,2.468,0,0,1,1.953-.81c1.115,0,1.832.573,1.832,1.488a2.164,2.164,0,0,1-.877,1.68l-1.633,1.572Z" transform="translate(-253.159 -392.788)"/>
      <path id="Path_66" data-name="Path 66" d="M375.694,395.521c0-1.739.931-2.733,2.183-2.733s2.176.993,2.176,2.733-.931,2.731-2.176,2.731S375.694,397.26,375.694,395.521Zm3.595,0c0-1.366-.58-2.053-1.412-2.053s-1.419.687-1.419,2.053.58,2.053,1.419,2.053S379.289,396.887,379.289,395.521Z" transform="translate(-251.78 -392.788)"/>
      <path id="Path_67" data-name="Path 67" d="M383.463,397.528v.663h-3.838v-.52l2.175-2.1c.565-.55.671-.886.671-1.221,0-.55-.39-.885-1.137-.885a1.68,1.68,0,0,0-1.366.58l-.519-.45a2.468,2.468,0,0,1,1.953-.81c1.115,0,1.832.573,1.832,1.488a2.164,2.164,0,0,1-.877,1.68l-1.633,1.572Z" transform="translate(-250.347 -392.788)"/>
      <path id="Path_68" data-name="Path 68" d="M383.064,395.521c0-1.739.931-2.733,2.184-2.733s2.175.993,2.175,2.733-.931,2.731-2.175,2.731S383.064,397.26,383.064,395.521Zm3.595,0c0-1.366-.58-2.053-1.411-2.053s-1.42.687-1.42,2.053.58,2.053,1.42,2.053S386.659,396.887,386.659,395.521Z" transform="translate(-248.968 -392.788)"/>
    </g>
  </g>
</svg>
