<svg id="youtube-logotype" xmlns="http://www.w3.org/2000/svg" width="26.392" height="31.265" viewBox="0 0 26.392 31.265">
  <g id="Group_6" data-name="Group 6" transform="translate(0)">
    <path id="Path_17" data-name="Path 17" d="M33,40.284a3.334,3.334,0,0,0-2.853-2.593,88.667,88.667,0,0,0-9.882-.365,88.694,88.694,0,0,0-9.883.365,3.333,3.333,0,0,0-2.851,2.593,28.258,28.258,0,0,0-.465,6.239,28.253,28.253,0,0,0,.46,6.238,3.333,3.333,0,0,0,2.852,2.593,88.675,88.675,0,0,0,9.882.366,88.611,88.611,0,0,0,9.883-.366A3.334,3.334,0,0,0,33,52.761a28.274,28.274,0,0,0,.462-6.238A28.294,28.294,0,0,0,33,40.284ZM14.595,41.833h-1.91v10.15H10.91V41.833H9.035V40.171h5.56Zm4.819,10.15h-1.6v-.96A2.556,2.556,0,0,1,16,52.1a.978.978,0,0,1-1.027-.654,4.492,4.492,0,0,1-.141-1.309v-6.96h1.595v6.48a4.966,4.966,0,0,0,.014.62c.038.248.159.373.373.373.32,0,.654-.247,1.008-.747V43.182h1.6v8.8Zm6.059-2.642a7.031,7.031,0,0,1-.161,1.774,1.263,1.263,0,0,1-1.274.989,2.173,2.173,0,0,1-1.648-.974v.853H20.795V40.171h1.595v3.858a2.16,2.16,0,0,1,1.648-.955,1.262,1.262,0,0,1,1.274.993,6.759,6.759,0,0,1,.161,1.769Zm6.019-1.468H28.3v1.56c0,.815.267,1.222.815,1.222a.685.685,0,0,0,.712-.64,10.034,10.034,0,0,0,.036-1.081h1.627v.233c0,.514-.02.868-.034,1.027a2.273,2.273,0,0,1-.372.955,2.207,2.207,0,0,1-1.929.954,2.284,2.284,0,0,1-1.93-.9,3.409,3.409,0,0,1-.512-2.07V46.051a3.426,3.426,0,0,1,.493-2.074,2.267,2.267,0,0,1,1.91-.9,2.215,2.215,0,0,1,1.882.9,3.46,3.46,0,0,1,.494,2.074v1.822Z" transform="translate(-7.067 -24.456)"/>
    <path id="Path_18" data-name="Path 18" d="M69.457,58.163q-.8,0-.8,1.221V60.2h1.595v-.814C70.251,58.57,69.985,58.163,69.457,58.163Z" transform="translate(-47.421 -38.109)"/>
    <path id="Path_19" data-name="Path 19" d="M52.3,58.163a1.143,1.143,0,0,0-.8.388v5.365a1.138,1.138,0,0,0,.8.393c.46,0,.694-.393.694-1.188V59.364C52.994,58.57,52.76,58.163,52.3,58.163Z" transform="translate(-36.183 -38.109)"/>
    <path id="Path_20" data-name="Path 20" d="M54.151,17.837a2.589,2.589,0,0,0,1.841-1.092v.97H57.6V8.82H55.992v6.8c-.357.5-.7.754-1.018.754-.216,0-.343-.128-.378-.378a3.738,3.738,0,0,1-.02-.626V8.82H52.97v7.034a4.494,4.494,0,0,0,.143,1.323A.99.99,0,0,0,54.151,17.837Z" transform="translate(-37.143 -5.779)"/>
    <path id="Path_21" data-name="Path 21" d="M19.6,7.1v4.834h1.787V7.1L23.534,0H21.726l-1.22,4.687L19.238,0H17.357c.377,1.106.769,2.218,1.146,3.326A29.4,29.4,0,0,1,19.6,7.1Z" transform="translate(-13.809)"/>
    <path id="Path_22" data-name="Path 22" d="M37.694,17.633a2.2,2.2,0,0,0,1.88-.911,3.479,3.479,0,0,0,.5-2.092V11.516a3.486,3.486,0,0,0-.5-2.1,2.39,2.39,0,0,0-3.757,0,3.457,3.457,0,0,0-.5,2.1v3.115a3.448,3.448,0,0,0,.5,2.092A2.2,2.2,0,0,0,37.694,17.633Zm-.769-6.44c0-.823.25-1.233.769-1.233s.769.41.769,1.233v3.742c0,.823-.249,1.235-.769,1.235s-.769-.412-.769-1.235Z" transform="translate(-25.574 -5.574)"/>
  </g>
</svg>
